<?xml version="1.0" encoding="UTF-8" standalone="no"?>
<svg
   xmlns:dc="http://purl.org/dc/elements/1.1/"
   xmlns:cc="http://creativecommons.org/ns#"
   xmlns:rdf="http://www.w3.org/1999/02/22-rdf-syntax-ns#"
   xmlns:svg="http://www.w3.org/2000/svg"
   xmlns="http://www.w3.org/2000/svg"
   xmlns:sodipodi="http://sodipodi.sourceforge.net/DTD/sodipodi-0.dtd"
   xmlns:inkscape="http://www.inkscape.org/namespaces/inkscape"
   version="1.1"
   viewBox="92 206 440 150"
   width="440pt"
   height="150pt"
   id="svg2"
   inkscape:version="0.91 r13725"
   sodipodi:docname="arrow_white_right.svg">
  <sodipodi:namedview
     pagecolor="#ffffff"
     bordercolor="#666666"
     borderopacity="1"
     objecttolerance="10"
     gridtolerance="10"
     guidetolerance="10"
     inkscape:pageopacity="0"
     inkscape:pageshadow="2"
     inkscape:window-width="1280"
     inkscape:window-height="751"
     id="namedview32"
     showgrid="false"
     inkscape:zoom="0.57272727"
     inkscape:cx="275"
     inkscape:cy="93.75"
     inkscape:window-x="0"
     inkscape:window-y="0"
     inkscape:window-maximized="1"
     inkscape:current-layer="svg2" />
  <metadata
     id="metadata4"> Produced by OmniGraffle 6.0.3 <dc:date>2015-01-17 19:51Z</dc:date>
<rdf:RDF>
  <cc:Work
     rdf:about="">
    <dc:format>image/svg+xml</dc:format>
    <dc:type
       rdf:resource="http://purl.org/dc/dcmitype/StillImage" />
    <dc:title />
  </cc:Work>
</rdf:RDF>
</metadata>
  <defs
     id="defs6" />
  <g
     id="g8"
     style="fill:#ffffff;fill-opacity:1;stroke:none;stroke-dasharray:none;stroke-opacity:1"
     transform="matrix(0,-1,1,0,29.520767,595.06485)">
    <title
       id="title10">Canvas 1</title>
    <g
       id="g12"
       style="fill:#ffffff">
      <title
         id="title14">Layer 1</title>
      <path
         d="m 116.3063,213.08799 197.149,113.82402 c 5.82368,3.36231 7.81902,10.80901 4.45671,16.63269 l 0,0 c -3.3623,5.82368 -10.80901,7.81902 -16.63268,4.45672 l -197.149,-113.82403 c -5.82368,-3.36231 -7.81902,-10.80901 -4.45672,-16.63269 l 0,0 c 3.3623,-5.82368 10.80901,-7.81902 16.63269,-4.45671 0,0 0,0 0,0 z"
         id="path16"
         style="fill:#ffffff"
         inkscape:connector-curvature="0" />
      <path
         d="m 116.3063,213.08799 197.149,113.82402 c 5.82368,3.36231 7.81902,10.80901 4.45671,16.63269 l 0,0 c -3.3623,5.82368 -10.80901,7.81902 -16.63268,4.45672 l -197.149,-113.82403 c -5.82368,-3.36231 -7.81902,-10.80901 -4.45672,-16.63269 l 0,0 c 3.3623,-5.82368 10.80901,-7.81902 16.63269,-4.45671 0,0 0,0 0,0 z"
         id="path18"
         style="fill:#ffffff;stroke:#000000;stroke-width:0;stroke-linecap:round;stroke-linejoin:round"
         inkscape:connector-curvature="0" />
      <path
         d="m 311.13033,326.91201 197.149,-113.82402 c 5.82367,-3.36231 13.27037,-1.36697 16.63267,4.45671 0,0 0,0 0,0 l 0,0 c 3.36232,5.82368 1.36698,13.27038 -4.4567,16.63269 l -197.149,113.82403 c -5.82368,3.3623 -13.27039,1.36696 -16.63269,-4.45672 0,0 0,0 0,0 l 0,0 c -3.3623,-5.82368 -1.36696,-13.27038 4.45672,-16.63269 z"
         id="path20"
         style="fill:#ffffff"
         inkscape:connector-curvature="0" />
      <path
         d="m 311.13033,326.91201 197.149,-113.82402 c 5.82367,-3.36231 13.27037,-1.36697 16.63267,4.45671 0,0 0,0 0,0 l 0,0 c 3.36232,5.82368 1.36698,13.27038 -4.4567,16.63269 l -197.149,113.82403 c -5.82368,3.3623 -13.27039,1.36696 -16.63269,-4.45672 0,0 0,0 0,0 l 0,0 c -3.3623,-5.82368 -1.36696,-13.27038 4.45672,-16.63269 z"
         id="path22"
         style="fill:#ffffff;stroke:#000000;stroke-width:0;stroke-linecap:round;stroke-linejoin:round"
         inkscape:connector-curvature="0" />
      <path
         d="m 300.58563,333 164.53192,-94.99255 12.17597,21.0894 -164.53192,94.99255 z"
         id="path24"
         style="fill:#ffffff"
         inkscape:connector-curvature="0" />
      <path
         d="m 300.58563,333 164.53192,-94.99255 12.17597,21.0894 -164.53192,94.99255 z"
         id="path26"
         style="fill:#ffffff;stroke:#000000;stroke-width:0;stroke-linecap:round;stroke-linejoin:round"
         inkscape:connector-curvature="0" />
      <path
         d="M 191.57309,256.54329 324,333 311.82403,354.0894 179.39711,277.63269 Z"
         id="path28"
         style="fill:#ffffff"
         inkscape:connector-curvature="0" />
      <path
         d="M 191.57309,256.54329 324,333 311.82403,354.0894 179.39711,277.63269 Z"
         id="path30"
         style="fill:#ffffff;stroke:#000000;stroke-width:0;stroke-linecap:round;stroke-linejoin:round"
         inkscape:connector-curvature="0" />
    </g>
  </g>
</svg>
