<?xml version="1.0" encoding="UTF-8" standalone="no"?>
<svg
   xmlns:dc="http://purl.org/dc/elements/1.1/"
   xmlns:cc="http://creativecommons.org/ns#"
   xmlns:rdf="http://www.w3.org/1999/02/22-rdf-syntax-ns#"
   xmlns:svg="http://www.w3.org/2000/svg"
   xmlns="http://www.w3.org/2000/svg"
   xmlns:sodipodi="http://sodipodi.sourceforge.net/DTD/sodipodi-0.dtd"
   xmlns:inkscape="http://www.inkscape.org/namespaces/inkscape"
   version="1.1"
   viewBox="92 206 440 150"
   width="440pt"
   height="150pt"
   id="svg2"
   inkscape:version="0.91 r13725"
   sodipodi:docname="arrow_white.svg">
  <sodipodi:namedview
     pagecolor="#ffffff"
     bordercolor="#666666"
     borderopacity="1"
     objecttolerance="10"
     gridtolerance="10"
     guidetolerance="10"
     inkscape:pageopacity="0"
     inkscape:pageshadow="2"
     inkscape:window-width="1280"
     inkscape:window-height="751"
     id="namedview32"
     showgrid="false"
     inkscape:zoom="0.57272727"
     inkscape:cx="275"
     inkscape:cy="93.75"
     inkscape:window-x="0"
     inkscape:window-y="0"
     inkscape:window-maximized="1"
     inkscape:current-layer="svg2" />
  <metadata
     id="metadata4"> Produced by OmniGraffle 6.0.3 <dc:date>2015-01-17 19:51Z</dc:date>
<rdf:RDF>
  <cc:Work
     rdf:about="">
    <dc:format>image/svg+xml</dc:format>
    <dc:type
       rdf:resource="http://purl.org/dc/dcmitype/StillImage" />
    <dc:title></dc:title>
  </cc:Work>
</rdf:RDF>
</metadata>
  <defs
     id="defs6" />
  <g
     id="g8"
     stroke-dasharray="none"
     stroke-opacity="1"
     stroke="none"
     fill-opacity="1"
     fill="none"
     style="fill:#ffffff">
    <title
       id="title10">Canvas 1</title>
    <g
       id="g12"
       style="fill:#ffffff">
      <title
         id="title14">Layer 1</title>
      <path
         d="M 116.3063 213.08799 L 313.4553 326.91201 C 319.27898 330.27432 321.27432 337.72102 317.91201 343.5447 L 317.91201 343.5447 C 314.54971 349.36838 307.103 351.36372 301.27933 348.00142 L 104.13033 234.17739 C 98.30665 230.81508 96.31131 223.36838 99.67361 217.5447 L 99.67361 217.5447 C 103.035914 211.72102 110.48262 209.72568 116.3063 213.08799 C 116.3063 213.08799 116.3063 213.08799 116.3063 213.08799 Z"
         id="path16"
         fill="#151925"
         style="fill:#ffffff" />
      <path
         d="M 116.3063 213.08799 L 313.4553 326.91201 C 319.27898 330.27432 321.27432 337.72102 317.91201 343.5447 L 317.91201 343.5447 C 314.54971 349.36838 307.103 351.36372 301.27933 348.00142 L 104.13033 234.17739 C 98.30665 230.81508 96.31131 223.36838 99.67361 217.5447 L 99.67361 217.5447 C 103.035914 211.72102 110.48262 209.72568 116.3063 213.08799 C 116.3063 213.08799 116.3063 213.08799 116.3063 213.08799 Z"
         id="path18"
         stroke-linejoin="round"
         stroke-linecap="round"
         stroke-width="0"
         stroke="black"
         style="fill:#ffffff" />
      <path
         d="M 311.13033 326.91201 L 508.27933 213.08799 C 514.103 209.72568 521.5497 211.72102 524.912 217.5447 C 524.912 217.5447 524.912 217.5447 524.912 217.5447 L 524.912 217.5447 C 528.27432 223.36838 526.27898 230.81508 520.4553 234.17739 L 323.3063 348.00142 C 317.48262 351.36372 310.03591 349.36838 306.67361 343.5447 C 306.67361 343.5447 306.67361 343.5447 306.67361 343.5447 L 306.67361 343.5447 C 303.31131 337.72102 305.30665 330.27432 311.13033 326.91201 Z"
         id="path20"
         fill="#151925"
         style="fill:#ffffff" />
      <path
         d="M 311.13033 326.91201 L 508.27933 213.08799 C 514.103 209.72568 521.5497 211.72102 524.912 217.5447 C 524.912 217.5447 524.912 217.5447 524.912 217.5447 L 524.912 217.5447 C 528.27432 223.36838 526.27898 230.81508 520.4553 234.17739 L 323.3063 348.00142 C 317.48262 351.36372 310.03591 349.36838 306.67361 343.5447 C 306.67361 343.5447 306.67361 343.5447 306.67361 343.5447 L 306.67361 343.5447 C 303.31131 337.72102 305.30665 330.27432 311.13033 326.91201 Z"
         id="path22"
         stroke-linejoin="round"
         stroke-linecap="round"
         stroke-width="0"
         stroke="black"
         style="fill:#ffffff" />
      <path
         d="M 300.58563 333 L 465.11755 238.00745 L 477.29352 259.09685 L 312.7616 354.0894 Z"
         id="path24"
         fill="#151925"
         style="fill:#ffffff" />
      <path
         d="M 300.58563 333 L 465.11755 238.00745 L 477.29352 259.09685 L 312.7616 354.0894 Z"
         id="path26"
         stroke-linejoin="round"
         stroke-linecap="round"
         stroke-width="0"
         stroke="black"
         style="fill:#ffffff" />
      <path
         d="M 191.57309 256.54329 L 324 333 L 311.82403 354.0894 L 179.39711 277.63269 Z"
         id="path28"
         fill="#151925"
         style="fill:#ffffff" />
      <path
         d="M 191.57309 256.54329 L 324 333 L 311.82403 354.0894 L 179.39711 277.63269 Z"
         id="path30"
         stroke-linejoin="round"
         stroke-linecap="round"
         stroke-width="0"
         stroke="black"
         style="fill:#ffffff" />
    </g>
  </g>
</svg>
