<?xml version="1.0" encoding="UTF-8" standalone="no"?>
<svg
   xmlns:dc="http://purl.org/dc/elements/1.1/"
   xmlns:cc="http://creativecommons.org/ns#"
   xmlns:rdf="http://www.w3.org/1999/02/22-rdf-syntax-ns#"
   xmlns:svg="http://www.w3.org/2000/svg"
   xmlns="http://www.w3.org/2000/svg"
   xmlns:sodipodi="http://sodipodi.sourceforge.net/DTD/sodipodi-0.dtd"
   xmlns:inkscape="http://www.inkscape.org/namespaces/inkscape"
   version="1.1"
   viewBox="276 143 247 252"
   width="247pt"
   height="21pc"
   id="svg2"
   inkscape:version="0.91 r13725"
   sodipodi:docname="back.svg">
  <sodipodi:namedview
     pagecolor="#ffffff"
     bordercolor="#666666"
     borderopacity="1"
     objecttolerance="10"
     gridtolerance="10"
     guidetolerance="10"
     inkscape:pageopacity="0"
     inkscape:pageshadow="2"
     inkscape:window-width="640"
     inkscape:window-height="480"
     id="namedview44"
     showgrid="false"
     inkscape:zoom="0.74920635"
     inkscape:cx="154.375"
     inkscape:cy="157.5"
     inkscape:window-x="0"
     inkscape:window-y="0"
     inkscape:window-maximized="0"
     inkscape:current-layer="svg2" />
  <metadata
     id="metadata4"> Produced by OmniGraffle 6.0.3 <dc:date>2015-04-21 22:53Z</dc:date>
<rdf:RDF>
  <cc:Work
     rdf:about="">
    <dc:format>image/svg+xml</dc:format>
    <dc:type
       rdf:resource="http://purl.org/dc/dcmitype/StillImage" />
  </cc:Work>
</rdf:RDF>
</metadata>
  <defs
     id="defs6" />
  <g
     stroke="none"
     stroke-opacity="1"
     stroke-dasharray="none"
     fill="none"
     fill-opacity="1"
     id="g8"
     style="fill:#ffffff">
    <title
       id="title10">Canvas 1</title>
    <g
       id="g12"
       style="fill:#ffffff">
      <title
         id="title14">Layer 1</title>
      <rect
         x="294.80316"
         y="255.11812"
         width="141.73229"
         height="28.346457"
         fill="#151925"
         id="rect16"
         style="fill:#ffffff" />
      <rect
         x="294.80316"
         y="255.11812"
         width="141.73229"
         height="28.346457"
         stroke="black"
         stroke-linecap="round"
         stroke-linejoin="round"
         stroke-width="0"
         id="rect18"
         style="fill:#ffffff" />
      <path
         d="M 297.6378 249.24737 L 317.68178 269.29135 L 297.6378 289.33532 L 277.59383 269.29135 Z"
         fill="#151925"
         id="path20"
         style="fill:#ffffff" />
      <path
         d="M 297.6378 249.24737 L 317.68178 269.29135 L 297.6378 289.33532 L 277.59383 269.29135 Z"
         stroke="black"
         stroke-linecap="round"
         stroke-linejoin="round"
         stroke-width="0"
         id="path22"
         style="fill:#ffffff" />
      <path
         d="M 298.39683 250.0064 L 384.95425 336.56382 L 364.91028 356.6078 L 278.35286 270.05037 Z"
         fill="#151925"
         id="path24"
         style="fill:#ffffff" />
      <path
         d="M 298.39683 250.0064 L 384.95425 336.56382 L 364.91028 356.6078 L 278.35286 270.05037 Z"
         stroke="black"
         stroke-linecap="round"
         stroke-linejoin="round"
         stroke-width="0"
         id="path26"
         style="fill:#ffffff" />
      <path
         d="M 361.51806 185.36712 L 381.56203 205.41109 L 297.83926 289.13387 L 277.79528 269.0899 Z"
         fill="#151925"
         id="path28"
         style="fill:#ffffff" />
      <path
         d="M 361.51806 185.36712 L 381.56203 205.41109 L 297.83926 289.13387 L 277.79528 269.0899 Z"
         stroke="black"
         stroke-linecap="round"
         stroke-linejoin="round"
         stroke-width="0"
         id="path30"
         style="fill:#ffffff" />
      <path
         d="M 345.82678 255.11812 L 507.4016 255.11812 C 515.22925 255.11812 521.57482 261.46369 521.57482 269.29135 L 521.57482 269.29135 C 521.57482 277.119 515.22925 283.46457 507.4016 283.46457 L 345.82678 283.46457 C 337.99912 283.46457 331.65355 277.119 331.65355 269.29135 L 331.65355 269.29135 C 331.65355 261.46369 337.99912 255.11812 345.82678 255.11812 Z"
         fill="#151925"
         id="path32"
         style="fill:#ffffff" />
      <path
         d="M 345.82678 255.11812 L 507.4016 255.11812 C 515.22925 255.11812 521.57482 261.46369 521.57482 269.29135 L 521.57482 269.29135 C 521.57482 277.119 515.22925 283.46457 507.4016 283.46457 L 345.82678 283.46457 C 337.99912 283.46457 331.65355 277.119 331.65355 269.29135 L 331.65355 269.29135 C 331.65355 261.46369 337.99912 255.11812 345.82678 255.11812 Z"
         stroke="black"
         stroke-linecap="round"
         stroke-linejoin="round"
         stroke-width="0"
         id="path34"
         style="fill:#ffffff" />
      <path
         d="M 412.34023 154.58892 L 412.34023 154.58892 C 417.87522 160.12391 417.87522 169.0979 412.34023 174.63289 L 348.66143 238.3117 C 343.12644 243.84669 334.15244 243.84669 328.61745 238.3117 C 328.61745 238.3117 328.61745 238.3117 328.61745 238.3117 L 328.61745 238.3117 C 323.08246 232.7767 323.08246 223.80271 328.61745 218.26772 L 392.29626 154.58892 C 397.83125 149.05393 406.80524 149.05393 412.34023 154.58892 C 412.34023 154.58892 412.34023 154.58892 412.34023 154.58892 Z"
         fill="#151925"
         id="path36"
         style="fill:#ffffff" />
      <path
         d="M 412.34023 154.58892 L 412.34023 154.58892 C 417.87522 160.12391 417.87522 169.0979 412.34023 174.63289 L 348.66143 238.3117 C 343.12644 243.84669 334.15244 243.84669 328.61745 238.3117 C 328.61745 238.3117 328.61745 238.3117 328.61745 238.3117 L 328.61745 238.3117 C 323.08246 232.7767 323.08246 223.80271 328.61745 218.26772 L 392.29626 154.58892 C 397.83125 149.05393 406.80524 149.05393 412.34023 154.58892 C 412.34023 154.58892 412.34023 154.58892 412.34023 154.58892 Z"
         stroke="black"
         stroke-linecap="round"
         stroke-linejoin="round"
         stroke-width="0"
         id="path38"
         style="fill:#ffffff" />
      <path
         d="M 333.60148 285.21105 L 412.1118 363.72138 C 417.6468 369.25637 417.6468 378.23036 412.1118 383.76535 L 412.1118 383.76535 C 406.57682 389.30034 397.60283 389.30034 392.06784 383.76535 C 392.06784 383.76535 392.06784 383.76535 392.06784 383.76535 L 313.5575 305.25502 C 308.02251 299.72003 308.02251 290.74604 313.5575 285.21105 L 313.5575 285.21105 C 319.0925 279.67606 328.06649 279.67606 333.60148 285.21105 C 333.60148 285.21105 333.60148 285.21105 333.60148 285.21105 Z"
         fill="#151925"
         id="path40"
         style="fill:#ffffff" />
      <path
         d="M 333.60148 285.21105 L 412.1118 363.72138 C 417.6468 369.25637 417.6468 378.23036 412.1118 383.76535 L 412.1118 383.76535 C 406.57682 389.30034 397.60283 389.30034 392.06784 383.76535 C 392.06784 383.76535 392.06784 383.76535 392.06784 383.76535 L 313.5575 305.25502 C 308.02251 299.72003 308.02251 290.74604 313.5575 285.21105 L 313.5575 285.21105 C 319.0925 279.67606 328.06649 279.67606 333.60148 285.21105 C 333.60148 285.21105 333.60148 285.21105 333.60148 285.21105 Z"
         stroke="black"
         stroke-linecap="round"
         stroke-linejoin="round"
         stroke-width="0"
         id="path42"
         style="fill:#ffffff" />
    </g>
  </g>
</svg>
