<?xml version="1.0" encoding="utf-8"?>
<!-- Generator: Adobe Illustrator 16.0.0, SVG Export Plug-In . SVG Version: 6.00 Build 0)  -->
<!DOCTYPE svg PUBLIC "-//W3C//DTD SVG 1.1//EN" "http://www.w3.org/Graphics/SVG/1.1/DTD/svg11.dtd" [
	<!ENTITY ns_extend "http://ns.adobe.com/Extensibility/1.0/">
	<!ENTITY ns_ai "http://ns.adobe.com/AdobeIllustrator/10.0/">
	<!ENTITY ns_graphs "http://ns.adobe.com/Graphs/1.0/">
	<!ENTITY ns_vars "http://ns.adobe.com/Variables/1.0/">
	<!ENTITY ns_imrep "http://ns.adobe.com/ImageReplacement/1.0/">
	<!ENTITY ns_sfw "http://ns.adobe.com/SaveForWeb/1.0/">
	<!ENTITY ns_custom "http://ns.adobe.com/GenericCustomNamespace/1.0/">
	<!ENTITY ns_adobe_xpath "http://ns.adobe.com/XPath/1.0/">
]>
<svg version="1.1" id="logo" xmlns:x="&ns_extend;" xmlns:i="&ns_ai;" xmlns:graph="&ns_graphs;"
	 xmlns="http://www.w3.org/2000/svg" xmlns:xlink="http://www.w3.org/1999/xlink" x="0px" y="0px" width="900px" height="750px"
	 viewBox="0 0 900 750" enable-background="new 0 0 900 750" xml:space="preserve">
<metadata>
	<sfw  xmlns="&ns_sfw;">
		<slices></slices>
		<sliceSourceBounds  bottomLeftOrigin="true" width="339.202" height="186.981" x="280.549" y="276.732"></sliceSourceBounds>
	</sfw>
</metadata>
<g>
	<rect id="ch1" x="281" y="287.057" fill="#FFFFFF" width="76.833" height="87.724"/>
	<g>
		<g>
			<g>
				<path  d="M357.85,374.781v-8.42v-18.015v-16.86c-0.001-2.245,0.023-4.496-0.028-6.736c-0.109-4.849-0.167-9.714-0.327-14.554
					c-0.055-1.665-0.195-3.43-0.085-5.092c0.153-2.317,0.516-4.654,0.455-7.035c-0.034-1.322-0.101-2.587-0.094-3.923
					c0.011-2.362-0.014-4.726-0.042-7.088l0.104,0.104l-5.24,0.056c-4.58,0.045-9.166,0.09-13.743,0.136l-11.496,0.117
					c-1.821,0.017-3.654,0.034-5.475,0.051h-0.141c-2.552,0.34-4.935,0.141-7.594,0.159c-1.977,0.016-3.95,0.099-5.926,0.14
					c-1.878,0.038-3.78-0.076-5.652-0.14c-7.189-0.099-14.378-0.198-21.567-0.198c0.109-0.142,0.217-0.283,0.359-0.425l-0.055,1.597
					l0.16,9.985c0.104,7.084,0.069,14.105-0.16,21.17c-0.118,3.841-0.336,7.479-0.148,11.333c0.105,2.162,0.309,4.462,0.309,6.639
					c-0.052,12.333-0.104,24.666-0.104,36.999c-0.12-0.103-0.24-0.205-0.36-0.325l0.946,0.021h26.361h9.985
					c1.579,0.158,3.779,0.152,5.392,0.24c4.637,0.251,9.143,0.241,13.855,0.279c5.441,0.033,10.887,0.066,16.327,0.099
					c0.245,0.002,3.908,0.094,3.968,0.022l-0.398,0.426c0,0-26.514-0.104-26.891-0.105c-3.896-0.015-4.863-0.16-9.357-0.36
					c-7.006-0.312-16.651-0.176-23.694-0.173l-2.233-0.001L281,374.935h-0.15l0-0.154l-0.08-35.801c0-3.63-0.224-7.155-0.214-10.78
					c0.005-1.688-0.054-3.568,0.111-5.19c0.23-2.279,0.271-4.59,0.316-6.929l-0.104-29.023l0-0.106l0.121-0.002l0.666-0.014
					l12.116,0.106c6.836-0.064,13.67,0.027,20.503-0.106l7.856,0.053h6.389l29.304-0.327l0.355-0.004l0.005,0.401l0.189,13.7
					c-0.113,1.987-0.43,4.024-0.472,6.002c-0.038,1.801,0.106,3.737,0.158,5.536c0.162,5.104,0.324,10.2,0.485,15.302
					c0.096,3.123-0.074,6.086-0.147,9.193c-0.061,3.129-0.122,6.26-0.183,9.393c-0.098,7.428-0.195,14.85-0.293,22.277
					L357.85,374.781z"/>
			</g>
		</g>
	</g>
</g>
<g>
	<rect id="ch2" x="367.833" y="287.057" fill="#FFFFFF" width="76.834" height="87.724"/>
	<g>
		<g>
			<g>
				<path d="M367.85,374.781v-8.42v-18.015v-16.86c-0.001-2.246,0.023-4.496-0.028-6.736c-0.109-4.849-0.167-9.715-0.327-14.554
					c-0.055-1.665-0.195-3.43-0.085-5.093c0.153-2.317,0.516-4.654,0.455-7.034c-0.034-1.323-0.101-2.588-0.094-3.924
					c0.011-2.362-0.014-4.725-0.042-7.088l-0.001-0.104l0.106-0.001l5.24-0.056c4.579-0.045,9.166-0.09,13.743-0.136l11.496-0.117
					c1.821-0.017,3.654-0.034,5.475-0.051h0.14c2.553-0.34,4.936-0.141,7.594-0.159c1.977-0.016,3.95-0.099,5.926-0.14
					c1.879-0.038,3.78,0.076,5.652,0.14l21.567,0.297l0.37,0.005l-0.012,0.321l-0.055,1.597l0.16,9.985
					c0.104,7.084,0.069,14.105-0.16,21.17c-0.118,3.841-0.336,7.479-0.148,11.333c0.105,2.163,0.309,4.462,0.309,6.64l-0.156,36.999
					l-0.001,0.332l-0.307-0.007l-0.946-0.021h-26.361h-9.985c-1.579-0.158-3.779-0.152-5.391-0.24
					c-4.637-0.251-9.143-0.241-13.855-0.279c-5.441-0.033-10.887-0.066-16.327-0.099c-0.245-0.002-3.908-0.094-3.968-0.022
					l0.398-0.426c0,0,26.514,0.104,26.891,0.105c3.896,0.015,4.863,0.16,9.357,0.36c7.006,0.312,16.651,0.176,23.694,0.173
					l2.233,0.001c4.753-0.01,9.507-0.021,14.26-0.021c-0.052,0.048-0.103,0.096-0.15,0.144l-0.08-35.8
					c0-3.63-0.224-7.155-0.214-10.78c0.005-1.688-0.054-3.568,0.111-5.19c0.23-2.28,0.271-4.59,0.316-6.93
					c-0.035-9.674-0.069-19.349-0.069-29.023c0.028,0.041,0.058,0.081,0.086,0.109l-0.665,0.014l-12.116-0.106
					c-6.836,0.064-13.67-0.027-20.504,0.106l-7.855-0.053h-6.39c-9.768,0.109-19.536,0.218-29.304,0.218
					c0.132-0.096,0.265-0.192,0.361-0.288l0.189,13.699c-0.113,1.987-0.43,4.025-0.472,6.002c-0.038,1.802,0.106,3.737,0.158,5.536
					c0.162,5.104,0.324,10.2,0.485,15.302c0.096,3.123-0.074,6.086-0.147,9.193c-0.061,3.129-0.122,6.26-0.183,9.393
					c-0.098,7.428-0.195,14.85-0.293,22.277L367.85,374.781z"/>
			</g>
		</g>
	</g>
</g>
<g>
	<rect id="ch3" x="454.667" y="287.057" fill="#FFFFFF" width="76.834" height="87.724"/>
	<g>
		<g>
			<g>
				<path d="M531.518,374.781v-8.42v-18.015v-16.86c-0.001-2.246,0.023-4.496-0.028-6.736c-0.109-4.849-0.167-9.715-0.327-14.554
					c-0.055-1.665-0.195-3.43-0.085-5.093c0.153-2.317,0.516-4.654,0.455-7.034c-0.034-1.323-0.101-2.588-0.094-3.924
					c0.011-2.362-0.014-4.725-0.042-7.088l0.104,0.104l-5.24,0.056c-4.579,0.045-9.166,0.09-13.743,0.136l-11.495,0.117
					c-1.821,0.017-3.654,0.034-5.476,0.051h-0.141c-2.552,0.34-4.935,0.141-7.594,0.159c-1.977,0.016-3.95,0.099-5.926,0.14
					c-1.879,0.038-3.78-0.076-5.652-0.14c-7.189-0.099-14.378-0.198-21.567-0.198c0.108-0.142,0.217-0.283,0.358-0.425l-0.055,1.597
					l0.16,9.985c0.104,7.084,0.069,14.105-0.16,21.17c-0.118,3.841-0.336,7.479-0.148,11.333c0.105,2.163,0.309,4.462,0.309,6.64
					c-0.052,12.333-0.104,24.666-0.104,36.999c-0.119-0.103-0.239-0.205-0.359-0.325l0.946,0.021h26.361h9.985
					c1.578,0.158,3.778,0.152,5.391,0.24c4.637,0.251,9.144,0.241,13.855,0.279c5.441,0.033,10.888,0.066,16.327,0.099
					c0.245,0.002,3.908,0.094,3.968,0.022l-0.398,0.426c0,0-26.514-0.104-26.891-0.105c-3.896-0.015-4.863-0.16-9.357-0.36
					c-7.006-0.312-16.651-0.176-23.694-0.173l-2.233-0.001l-14.26,0.031h-0.149l-0.001-0.154l-0.08-35.8
					c0-3.63-0.224-7.155-0.214-10.78c0.005-1.688-0.054-3.568,0.111-5.19c0.23-2.28,0.271-4.59,0.316-6.93l-0.104-29.023v-0.106
					l0.121-0.002l0.665-0.014l12.116,0.106c6.836-0.064,13.67,0.027,20.504-0.106l7.855,0.053h6.39l29.304-0.327l0.355-0.004
					l0.005,0.401l0.189,13.699c-0.113,1.987-0.43,4.025-0.472,6.002c-0.038,1.802,0.106,3.737,0.158,5.536
					c0.162,5.104,0.323,10.2,0.485,15.302c0.096,3.123-0.074,6.086-0.147,9.193c-0.061,3.129-0.122,6.26-0.183,9.393
					c-0.098,7.428-0.195,14.85-0.293,22.277L531.518,374.781z"/>
			</g>
		</g>
	</g>
</g>
<g>
	<rect id="ch4" x="542.167" y="287.057" fill="#FFFFFF" width="76.834" height="87.724"/>
	<g>
		<g>
			<g>
				<path d="M619.018,374.781v-8.42v-18.015v-16.86c-0.001-2.246,0.023-4.496-0.028-6.736c-0.109-4.849-0.167-9.715-0.327-14.554
					c-0.055-1.665-0.195-3.43-0.085-5.093c0.153-2.317,0.516-4.654,0.455-7.034c-0.034-1.323-0.101-2.588-0.094-3.924
					c0.011-2.362-0.014-4.725-0.042-7.088l0.104,0.104l-5.24,0.056c-4.579,0.045-9.166,0.09-13.743,0.136l-11.495,0.117
					c-1.821,0.017-3.654,0.034-5.476,0.051h-0.141c-2.552,0.34-4.935,0.141-7.594,0.159c-1.977,0.016-3.95,0.099-5.926,0.14
					c-1.879,0.038-3.78-0.076-5.652-0.14c-7.189-0.099-14.378-0.198-21.567-0.198c0.108-0.142,0.217-0.283,0.358-0.425l-0.055,1.597
					l0.16,9.985c0.104,7.084,0.069,14.105-0.16,21.17c-0.118,3.841-0.336,7.479-0.148,11.333c0.105,2.163,0.309,4.462,0.309,6.64
					c-0.052,12.333-0.104,24.666-0.104,36.999c-0.119-0.103-0.239-0.205-0.359-0.325l0.946,0.021h26.361h9.985
					c1.578,0.158,3.778,0.152,5.391,0.24c4.637,0.251,9.144,0.241,13.855,0.279c5.441,0.033,10.888,0.066,16.327,0.099
					c0.245,0.002,3.908,0.094,3.968,0.022l-0.398,0.426c0,0-26.514-0.104-26.891-0.105c-3.896-0.015-4.863-0.16-9.357-0.36
					c-7.006-0.312-16.651-0.176-23.694-0.173l-2.233-0.001l-14.26,0.031h-0.149l-0.001-0.154l-0.08-35.8
					c0-3.63-0.224-7.155-0.214-10.78c0.005-1.688-0.054-3.568,0.111-5.19c0.23-2.28,0.271-4.59,0.316-6.93l-0.104-29.023v-0.106
					l0.121-0.002l0.665-0.014l12.116,0.106c6.836-0.064,13.67,0.027,20.504-0.106l7.855,0.053h6.39l29.304-0.327l0.355-0.004
					l0.005,0.401l0.189,13.699c-0.113,1.987-0.43,4.025-0.472,6.002c-0.038,1.802,0.106,3.737,0.158,5.536
					c0.162,5.104,0.323,10.2,0.485,15.302c0.096,3.123-0.074,6.086-0.147,9.193c-0.061,3.129-0.122,6.26-0.183,9.393
					c-0.098,7.428-0.195,14.85-0.293,22.277L619.018,374.781z"/>
			</g>
		</g>
	</g>
</g>
<g>
	<rect id="ch5" x="281" y="384.781" fill="#FFFFFF" width="76.833" height="87.724"/>
	<g>
		<g>
			<g>
				<path d="M357.85,472.505v-8.42v-18.016v-16.86c-0.001-2.245,0.023-4.495-0.028-6.735c-0.109-4.849-0.167-9.715-0.327-14.554
					c-0.055-1.665-0.195-3.43-0.085-5.093c0.153-2.317,0.516-4.653,0.455-7.034c-0.034-1.322-0.101-2.588-0.094-3.924
					c0.011-2.361-0.014-4.725-0.042-7.088l0.104,0.104l-5.24,0.057c-4.579,0.045-9.166,0.09-13.743,0.135l-11.496,0.117
					c-1.821,0.018-3.654,0.034-5.475,0.051h-0.14c-2.553,0.34-4.936,0.141-7.594,0.16c-1.977,0.016-3.951,0.098-5.927,0.139
					c-1.878,0.039-3.78-0.076-5.652-0.139c-7.189-0.1-14.378-0.199-21.567-0.199c0.109-0.141,0.217-0.283,0.359-0.424l-0.055,1.596
					l0.16,9.986c0.104,7.084,0.069,14.105-0.16,21.17c-0.118,3.84-0.336,7.479-0.148,11.333c0.105,2.163,0.309,4.462,0.309,6.64
					c-0.052,12.333-0.104,24.666-0.104,36.999c-0.12-0.103-0.24-0.205-0.36-0.325l0.945,0.021h26.361h9.985
					c1.579,0.158,3.779,0.152,5.391,0.24c4.637,0.251,9.143,0.241,13.855,0.279c5.441,0.033,10.887,0.065,16.327,0.099
					c0.245,0.002,3.908,0.094,3.968,0.022l-0.398,0.426c0,0-26.514-0.104-26.891-0.105c-3.896-0.015-4.863-0.16-9.357-0.36
					c-7.006-0.312-16.651-0.176-23.694-0.173l-2.233-0.001l-14.26,0.03l-0.15,0.001l0-0.154l-0.08-35.801
					c0-3.63-0.224-7.155-0.214-10.78c0.005-1.688-0.054-3.568,0.111-5.189c0.23-2.28,0.271-4.591,0.316-6.93l-0.104-29.023l0-0.107
					l0.121-0.002l0.666-0.014l12.116,0.105c6.835-0.064,13.67,0.027,20.503-0.105l7.856,0.053h6.39l29.303-0.327l0.355-0.004
					l0.005,0.401l0.189,13.699c-0.113,1.986-0.43,4.025-0.472,6.002c-0.038,1.802,0.106,3.737,0.158,5.536
					c0.162,5.104,0.324,10.2,0.485,15.302c0.096,3.123-0.074,6.086-0.147,9.193c-0.061,3.129-0.122,6.261-0.183,9.393
					c-0.098,7.429-0.195,14.851-0.293,22.277L357.85,472.505z"/>
			</g>
		</g>
	</g>
</g>
<g>
	<rect id="ch6" x="367.833" y="384.781" fill="#FFFFFF" width="76.834" height="87.724"/>
	<g>
		<g>
			<g>
				<path d="M367.85,472.505v-8.42v-18.016v-16.86c-0.001-2.245,0.023-4.495-0.028-6.735c-0.109-4.849-0.167-9.715-0.327-14.554
					c-0.055-1.666-0.195-3.43-0.085-5.093c0.153-2.317,0.516-4.653,0.455-7.034c-0.034-1.322-0.101-2.588-0.094-3.924
					c0.011-2.361-0.014-4.726-0.042-7.088l-0.001-0.104l0.106-0.002l5.24-0.055c4.58-0.046,9.167-0.091,13.744-0.137l11.495-0.117
					c1.821-0.017,3.655-0.033,5.476-0.051h0.14c2.552-0.34,4.936-0.141,7.594-0.158c1.977-0.016,3.95-0.1,5.926-0.141
					c1.879-0.037,3.78,0.076,5.652,0.141l21.567,0.297l0.37,0.005l-0.012,0.321l-0.055,1.596l0.16,9.986
					c0.104,7.084,0.069,14.105-0.16,21.17c-0.118,3.84-0.336,7.479-0.148,11.333c0.105,2.163,0.309,4.462,0.309,6.64l-0.156,36.999
					l-0.001,0.332l-0.307-0.007l-0.945-0.021h-26.362h-9.985c-1.579-0.158-3.779-0.152-5.391-0.24
					c-4.637-0.251-9.143-0.241-13.855-0.279c-5.441-0.033-10.887-0.065-16.327-0.099c-0.245-0.002-3.908-0.094-3.968-0.022
					l0.398-0.426c0,0,26.514,0.104,26.891,0.105c3.896,0.015,4.863,0.16,9.357,0.36c7.007,0.312,16.651,0.176,23.694,0.173
					l2.233,0.001c4.753-0.01,9.507-0.021,14.26-0.021c-0.052,0.048-0.103,0.096-0.15,0.144l-0.08-35.801
					c0-3.63-0.224-7.155-0.214-10.78c0.005-1.688-0.054-3.567,0.111-5.189c0.23-2.279,0.271-4.591,0.316-6.93
					c-0.035-9.675-0.069-19.35-0.069-29.023c0.028,0.04,0.058,0.08,0.086,0.108l-0.665,0.015l-12.116-0.107
					c-6.836,0.064-13.67-0.027-20.504,0.107l-7.855-0.053h-6.39c-9.768,0.108-19.536,0.217-29.304,0.217
					c0.132-0.096,0.265-0.191,0.361-0.287l0.189,13.699c-0.113,1.986-0.43,4.025-0.472,6.002c-0.038,1.801,0.106,3.736,0.158,5.536
					c0.162,5.104,0.324,10.2,0.485,15.302c0.096,3.123-0.074,6.086-0.147,9.193c-0.061,3.129-0.122,6.261-0.183,9.393
					c-0.098,7.429-0.195,14.851-0.293,22.277L367.85,472.505z"/>
			</g>
		</g>
	</g>
</g>
<g>
	<rect id="ch7" x="454.667" y="384.781" fill="#FFFFFF" width="76.834" height="87.724"/>
	<g>
		<g>
			<g>
				<path d="M531.518,472.505v-8.42v-18.016v-16.86c-0.001-2.245,0.023-4.495-0.028-6.735c-0.109-4.849-0.167-9.715-0.327-14.554
					c-0.055-1.666-0.195-3.43-0.085-5.093c0.153-2.317,0.516-4.653,0.455-7.034c-0.034-1.322-0.101-2.588-0.094-3.924
					c0.011-2.361-0.014-4.726-0.042-7.088l0.104,0.104l-5.24,0.057c-4.579,0.045-9.166,0.09-13.743,0.135l-11.495,0.117
					c-1.821,0.018-3.654,0.034-5.476,0.051h-0.141c-2.552,0.34-4.935,0.141-7.594,0.16c-1.977,0.016-3.95,0.098-5.926,0.139
					c-1.879,0.039-3.78-0.076-5.652-0.139c-7.189-0.1-14.378-0.199-21.567-0.199c0.108-0.141,0.217-0.283,0.358-0.424l-0.055,1.596
					l0.16,9.986c0.104,7.084,0.069,14.105-0.16,21.17c-0.118,3.84-0.336,7.479-0.148,11.333c0.105,2.163,0.309,4.462,0.309,6.64
					c-0.052,12.333-0.104,24.666-0.104,36.999c-0.119-0.103-0.239-0.205-0.359-0.325l0.945,0.021h26.362h9.984
					c1.579,0.158,3.779,0.152,5.392,0.24c4.637,0.251,9.144,0.241,13.855,0.279c5.441,0.033,10.888,0.065,16.327,0.099
					c0.245,0.002,3.908,0.094,3.968,0.022l-0.398,0.426c0,0-26.514-0.104-26.891-0.105c-3.896-0.015-4.863-0.16-9.357-0.36
					c-7.007-0.312-16.651-0.176-23.694-0.173l-2.233-0.001l-14.26,0.03l-0.149,0.001l-0.001-0.154l-0.08-35.801
					c0-3.63-0.224-7.155-0.214-10.78c0.005-1.688-0.054-3.567,0.111-5.189c0.23-2.279,0.271-4.591,0.316-6.93l-0.104-29.023v-0.107
					l0.121-0.002l0.665-0.014l12.116,0.105c6.836-0.064,13.67,0.027,20.504-0.105l7.855,0.053h6.39l29.304-0.327l0.355-0.004
					l0.005,0.401l0.189,13.699c-0.113,1.986-0.43,4.025-0.472,6.002c-0.038,1.801,0.106,3.736,0.158,5.536
					c0.162,5.104,0.323,10.2,0.485,15.302c0.096,3.123-0.074,6.086-0.147,9.193c-0.061,3.129-0.122,6.261-0.183,9.393
					c-0.098,7.429-0.195,14.851-0.293,22.277L531.518,472.505z"/>
			</g>
		</g>
	</g>
</g>
<g>
	<rect id="ch8" x="542.167" y="384.781" fill="#FFFFFF" width="76.834" height="87.724"/>
	<g>
		<g>
			<g>
				<path d="M619.018,472.505v-8.42v-18.016v-16.86c-0.001-2.245,0.023-4.495-0.028-6.735c-0.109-4.849-0.167-9.715-0.327-14.554
					c-0.055-1.666-0.195-3.43-0.085-5.093c0.153-2.317,0.516-4.653,0.455-7.034c-0.034-1.322-0.101-2.588-0.094-3.924
					c0.011-2.361-0.014-4.726-0.042-7.088l0.104,0.104l-5.24,0.057c-4.579,0.045-9.166,0.09-13.743,0.135l-11.495,0.117
					c-1.821,0.018-3.654,0.034-5.476,0.051h-0.141c-2.552,0.34-4.935,0.141-7.594,0.16c-1.977,0.016-3.95,0.098-5.926,0.139
					c-1.879,0.039-3.78-0.076-5.652-0.139c-7.189-0.1-14.378-0.199-21.567-0.199c0.108-0.141,0.217-0.283,0.358-0.424l-0.055,1.596
					l0.16,9.986c0.104,7.084,0.069,14.105-0.16,21.17c-0.118,3.84-0.336,7.479-0.148,11.333c0.105,2.163,0.309,4.462,0.309,6.64
					c-0.052,12.333-0.104,24.666-0.104,36.999c-0.119-0.103-0.239-0.205-0.359-0.325l0.945,0.021h26.362h9.984
					c1.579,0.158,3.779,0.152,5.392,0.24c4.637,0.251,9.144,0.241,13.855,0.279c5.441,0.033,10.888,0.065,16.327,0.099
					c0.245,0.002,3.908,0.094,3.968,0.022l-0.398,0.426c0,0-26.514-0.104-26.891-0.105c-3.896-0.015-4.863-0.16-9.357-0.36
					c-7.007-0.312-16.651-0.176-23.694-0.173l-2.233-0.001l-14.26,0.03l-0.149,0.001l-0.001-0.154l-0.08-35.801
					c0-3.63-0.224-7.155-0.214-10.78c0.005-1.688-0.054-3.567,0.111-5.189c0.23-2.279,0.271-4.591,0.316-6.93l-0.104-29.023v-0.107
					l0.121-0.002l0.665-0.014l12.116,0.105c6.836-0.064,13.67,0.027,20.504-0.105l7.855,0.053h6.39l29.304-0.327l0.355-0.004
					l0.005,0.401l0.189,13.699c-0.113,1.986-0.43,4.025-0.472,6.002c-0.038,1.801,0.106,3.736,0.158,5.536
					c0.162,5.104,0.323,10.2,0.485,15.302c0.096,3.123-0.074,6.086-0.147,9.193c-0.061,3.129-0.122,6.261-0.183,9.393
					c-0.098,7.429-0.195,14.851-0.293,22.277L619.018,472.505z"/>
			</g>
		</g>
	</g>
</g>
</svg>
